<?xml version="1.0" standalone="no"?>
<!DOCTYPE svg PUBLIC "-//W3C//DTD SVG 20010904//EN"
 "http://www.w3.org/TR/2001/REC-SVG-20010904/DTD/svg10.dtd">
<svg version="1.0" xmlns="http://www.w3.org/2000/svg"
 width="600.000000pt" height="591.000000pt" viewBox="0 0 600.000000 591.000000"
 preserveAspectRatio="xMidYMid meet">
<metadata>
Created by potrace 1.16, written by Peter Selinger 2001-2019
</metadata>
<g transform="translate(0.000000,591.000000) scale(0.100000,-0.100000)"
fill="#000000" stroke="none">
<path d="M2755 5829 c-193 -19 -344 -43 -455 -74 -25 -7 -74 -20 -110 -30 -82
-21 -143 -44 -325 -118 -132 -54 -368 -175 -385 -198 -3 -3 -21 -14 -40 -24
-19 -10 -37 -21 -40 -24 -3 -4 -45 -35 -95 -70 -49 -35 -101 -74 -115 -87 -14
-12 -59 -51 -100 -86 -140 -118 -372 -365 -457 -485 -15 -22 -49 -71 -75 -107
-27 -37 -48 -69 -48 -72 0 -3 -8 -18 -19 -32 -10 -15 -31 -49 -47 -77 -15 -27
-36 -63 -46 -80 -10 -16 -22 -39 -27 -51 -5 -12 -27 -59 -49 -105 -58 -123
-126 -319 -165 -474 -9 -33 -20 -78 -26 -100 -27 -102 -60 -433 -61 -594 0
-102 14 -286 31 -391 5 -36 12 -78 14 -95 14 -104 90 -382 125 -460 5 -11 19
-45 30 -75 26 -69 41 -102 98 -215 25 -49 50 -100 56 -112 6 -13 14 -23 19
-23 4 0 7 -6 7 -12 0 -14 99 -167 169 -263 168 -228 447 -504 683 -674 45 -33
88 -65 94 -70 6 -5 26 -17 45 -26 19 -10 36 -21 39 -24 20 -26 302 -168 425
-216 39 -14 79 -30 90 -35 28 -13 104 -40 140 -50 17 -4 66 -18 110 -30 106
-29 195 -49 275 -61 119 -17 374 -39 465 -39 158 0 510 35 605 60 19 5 75 19
124 30 180 44 440 141 606 227 98 51 194 105 200 114 3 3 20 14 39 24 19 9 39
21 45 26 6 5 49 37 94 70 236 170 515 446 683 674 70 96 169 249 169 263 0 6
3 12 8 12 4 0 12 10 18 23 6 12 31 63 56 112 49 98 60 122 106 235 28 68 39
103 77 225 37 116 62 222 70 290 3 22 9 63 14 90 5 28 15 128 22 223 17 240 0
517 -48 742 -25 119 -69 281 -89 327 -8 17 -14 35 -14 40 0 14 -59 164 -92
233 -72 153 -110 224 -120 228 -5 2 -8 7 -8 12 0 15 -98 167 -177 275 -109
150 -361 414 -498 524 -38 31 -74 61 -80 67 -5 7 -48 39 -95 73 -47 33 -90 65
-96 70 -6 5 -26 17 -45 26 -19 10 -36 21 -39 24 -3 4 -32 22 -65 41 -248 141
-509 244 -780 310 -276 67 -645 95 -920 69z m630 -78 c233 -40 340 -65 505
-116 350 -110 708 -311 995 -559 72 -62 227 -215 280 -277 135 -156 208 -256
314 -432 45 -74 161 -308 184 -372 74 -204 75 -206 116 -360 17 -65 33 -145
61 -305 7 -36 14 -190 17 -343 5 -231 3 -298 -11 -395 -46 -312 -124 -571
-250 -829 -14 -29 -26 -55 -26 -58 0 -8 -110 -196 -158 -270 -213 -327 -507
-620 -842 -838 -313 -202 -664 -342 -1035 -411 -182 -34 -232 -39 -483 -43
-277 -5 -386 3 -617 48 -752 146 -1434 606 -1847 1244 -96 150 -248 441 -248
477 0 8 -4 18 -9 23 -22 22 -117 346 -145 490 -37 195 -41 244 -41 520 0 356
17 483 109 810 12 44 33 105 82 237 35 95 149 317 229 447 47 76 135 202 155
221 3 3 23 28 45 55 206 258 521 525 810 685 349 194 648 293 1070 354 121 18
629 15 740 -3z"/>
<path d="M2650 4294 c-41 -35 -79 -64 -84 -64 -4 0 -6 -7 -3 -14 4 -9 1 -13
-6 -11 -7 3 -39 -18 -72 -46 -73 -62 -87 -73 -150 -123 -63 -49 -145 -128
-145 -138 0 -15 73 -77 83 -71 6 3 7 1 3 -5 -3 -6 42 -59 100 -119 150 -153
244 -266 244 -293 0 -13 10 -32 23 -44 33 -33 87 -103 87 -115 0 -6 4 -11 8
-11 5 0 38 -44 75 -98 36 -54 97 -130 135 -168 l68 -70 12 90 c17 126 31 289
32 363 0 65 -1 70 -115 358 -44 112 -47 127 -49 217 -1 89 1 98 23 122 14 14
28 26 32 26 4 0 20 5 35 11 l28 10 -54 31 c-53 30 -142 113 -205 190 l-30 36
-75 -64z"/>
<path d="M3440 4172 c-78 -6 -238 -34 -280 -48 -73 -25 -183 -83 -207 -110
-16 -18 -23 -38 -23 -66 0 -44 27 -156 41 -173 5 -5 9 -15 9 -23 0 -8 7 -28
15 -45 8 -18 33 -79 56 -137 41 -102 42 -109 47 -240 3 -103 -1 -172 -17 -285
-45 -316 -113 -633 -141 -655 -15 -11 -6 -38 12 -35 22 5 23 -4 2 -34 -16 -22
-16 -23 5 -12 32 18 159 178 153 194 -1 5 1 6 6 3 23 -14 290 325 362 459 9
17 27 47 39 68 l23 37 -69 0 c-65 0 -68 1 -68 24 l0 24 170 1 c246 3 335 13
525 61 73 18 186 79 234 126 78 77 109 174 92 289 -5 31 -12 45 -23 45 -9 0
-59 -13 -112 -29 -53 -16 -148 -36 -211 -45 -63 -9 -147 -20 -185 -26 -81 -11
-115 -5 -115 20 0 14 12 18 68 23 195 16 485 72 502 96 3 4 44 17 92 29 47 12
108 33 135 48 65 36 144 104 136 117 -3 6 -1 7 5 3 13 -8 54 43 45 57 -3 6 -1
7 5 3 14 -8 36 30 26 46 -4 6 -3 8 3 5 11 -7 26 22 42 80 l9 32 -51 5 c-29 3
-230 8 -447 11 -257 4 -421 11 -470 20 -146 25 -363 44 -440 37z"/>
<path d="M2587 3323 c-30 -96 -64 -148 -132 -202 l-56 -45 34 -35 c19 -20 47
-56 64 -81 32 -48 88 -111 251 -279 56 -58 102 -109 102 -113 0 -13 49 -9 78
6 29 15 31 21 65 203 l13 71 -85 89 c-48 49 -112 127 -143 174 -77 113 -160
222 -174 226 -6 2 -14 -4 -17 -14z"/>
<path d="M5505 3314 c-110 -7 -283 -18 -385 -24 -278 -18 -278 -18 -310 -41
-16 -12 -27 -25 -25 -29 2 -4 -2 -7 -9 -7 -7 0 -50 -26 -97 -58 -118 -82 -129
-91 -121 -101 4 -5 3 -6 -2 -2 -5 4 -21 1 -37 -7 -33 -17 -48 -37 -22 -29 15
5 15 4 3 -4 -8 -6 -18 -8 -22 -6 -10 7 -99 -57 -93 -66 3 -4 -3 -7 -13 -6 -9
0 -16 -4 -15 -11 2 -7 -3 -10 -11 -7 -8 3 -17 0 -22 -7 -5 -8 -3 -10 6 -4 9 5
11 4 6 -4 -4 -6 -12 -9 -17 -5 -5 3 -26 -8 -47 -24 -20 -16 -44 -32 -52 -35
-20 -9 170 0 405 18 105 8 289 22 410 30 121 8 315 22 430 31 116 8 246 17
290 20 l81 5 -3 97 c-2 53 -8 141 -14 195 l-11 97 -52 -1 c-28 -1 -141 -7
-251 -15z"/>
<path d="M3568 3013 c-12 -26 -25 -50 -28 -53 -3 -3 -26 -39 -50 -80 -41 -67
-108 -162 -164 -229 -55 -65 -114 -132 -167 -189 -33 -34 -59 -65 -59 -68 0
-3 -11 -20 -25 -36 -14 -16 -22 -35 -19 -40 4 -6 2 -8 -3 -5 -6 4 -17 -1 -24
-10 -8 -9 -33 -29 -57 -44 -24 -15 -37 -29 -30 -31 7 -3 3 -7 -10 -10 -12 -4
-20 -2 -17 3 4 5 -7 6 -23 3 -60 -12 -36 31 33 60 20 9 -20 25 -48 19 -25 -5
-28 -3 -25 13 2 10 9 20 16 20 6 1 19 2 28 3 13 1 14 4 5 14 -8 10 -7 28 5 68
30 106 30 100 -4 87 -17 -7 -29 -15 -27 -18 2 -3 -4 -6 -13 -7 -20 -2 -104
-29 -147 -48 -16 -7 -61 -27 -98 -44 -38 -17 -74 -31 -81 -31 -6 0 -16 -4 -21
-9 -12 -11 -187 -81 -204 -81 -7 0 -9 -5 -5 -12 4 -7 3 -8 -5 -4 -14 9 -151
-33 -151 -46 0 -5 -5 -6 -11 -3 -15 10 -69 -14 -101 -43 -14 -13 -31 -22 -36
-18 -5 3 -37 -3 -72 -15 -128 -42 -339 -92 -440 -104 -58 -7 -112 -16 -120
-19 -8 -3 -109 -12 -225 -20 -256 -19 -259 -20 -262 -117 -1 -35 2 -81 8 -101
11 -44 -14 -41 259 -39 107 1 196 5 198 10 1 4 14 6 27 3 14 -2 25 0 25 5 0 5
10 9 23 9 78 1 169 7 155 11 -10 2 -18 8 -18 13 0 5 8 9 18 9 9 0 41 3 70 6
32 5 52 4 52 -3 0 -5 47 6 105 26 57 19 102 39 99 44 -3 5 -2 8 3 7 21 -4 54
2 50 9 -3 4 7 7 22 8 14 0 49 11 76 24 28 13 54 22 59 21 15 -3 46 10 41 19
-3 4 1 8 8 7 44 -1 67 5 67 17 0 9 7 13 20 11 11 -2 20 0 20 5 0 5 7 7 15 4 8
-3 24 1 37 10 12 9 32 16 44 16 12 0 27 6 33 13 6 8 25 14 42 15 18 0 37 6 42
11 6 6 18 11 27 11 8 0 28 7 44 15 15 8 37 15 48 15 10 0 17 4 14 9 -3 5 1 12
10 15 10 4 13 2 8 -6 -4 -6 3 -4 16 5 14 10 28 13 34 8 10 -9 64 7 236 70 36
13 92 40 125 59 33 20 67 39 75 43 8 4 29 16 45 27 17 11 37 23 45 27 8 4 38
20 65 37 46 27 63 39 133 93 24 20 78 103 74 116 -1 5 1 6 6 3 5 -3 17 9 27
27 10 18 21 34 24 37 7 6 74 108 106 162 5 9 33 55 62 101 75 123 76 121 -29
125 l-86 3 -24 -48z"/>
<path d="M2372 3018 c-7 -7 -12 -17 -12 -23 0 -18 -194 -219 -268 -277 -37
-29 -76 -61 -87 -70 -11 -10 -29 -24 -39 -31 -19 -14 -19 -16 1 -98 41 -162
53 -218 53 -249 0 -37 6 -38 112 -2 46 16 112 38 148 50 74 24 149 51 200 74
119 52 139 62 134 69 -3 5 2 6 10 3 9 -3 35 3 58 14 24 11 64 28 91 37 26 10
47 20 47 23 0 14 -136 142 -147 138 -7 -3 -12 -2 -10 2 3 9 -45 72 -109 141
-28 31 -76 91 -107 134 -32 42 -58 77 -60 77 -2 0 -8 -5 -15 -12z"/>
<path d="M5640 2659 c-52 -4 -201 -13 -330 -18 -129 -6 -363 -18 -520 -26
-157 -8 -419 -22 -583 -30 l-299 -15 -73 -62 c-41 -34 -71 -66 -68 -71 3 -6 2
-7 -4 -4 -8 5 -176 -124 -227 -174 -6 -5 420 -9 1101 -9 1010 0 1111 1 1117
16 10 26 36 152 51 249 8 50 17 105 21 123 l7 32 -49 -1 c-27 -1 -92 -5 -144
-10z"/>
<path d="M1733 2590 c-115 -7 -210 -18 -305 -36 l-27 -5 26 -62 c85 -209 144
-337 169 -372 11 -15 17 -15 76 0 34 9 90 23 123 32 33 8 76 21 95 29 19 7 50
16 68 19 24 5 32 11 28 23 -2 10 -10 49 -17 87 -7 39 -24 120 -39 180 -23 90
-31 110 -46 111 -11 1 -78 -2 -151 -6z"/>
<path d="M1325 2490 c-22 -10 -94 -26 -160 -36 -141 -19 -211 -37 -237 -61
-15 -13 -18 -31 -18 -100 0 -96 13 -130 81 -207 l43 -49 136 7 c74 3 171 13
215 21 44 8 101 17 127 20 l48 6 -24 37 c-13 20 -26 48 -31 61 -4 13 -25 61
-46 106 -21 45 -39 87 -39 92 0 10 -50 124 -53 122 -1 0 -20 -9 -42 -19z"/>
<path d="M3220 2000 c-14 -12 -43 -36 -64 -53 -22 -18 -58 -48 -81 -67 -57
-49 -123 -103 -169 -139 l-39 -31 1337 0 1336 0 37 78 c41 89 92 206 90 208
-1 1 -438 4 -972 8 -533 3 -1078 9 -1210 12 -235 5 -241 5 -265 -16z"/>
</g>
</svg>
